<svg version="1.1" xmlns="http://www.w3.org/2000/svg" viewBox="0 0 1280 720">
<path fill="#00000000" stroke="#dddddd"  stroke-width="1" d="M80,636.439 L1279,636.439" />
<path fill="#00000000" stroke="#dddddd"  stroke-width="1" d="M80,617.391 L1279,617.391" />
<path fill="#00000000" stroke="#dddddd"  stroke-width="1" d="M80,603.877 L1279,603.877" />
<path fill="#00000000" stroke="#dddddd"  stroke-width="1" d="M80,593.395 L1279,593.395" />
<path fill="#00000000" stroke="#dddddd"  stroke-width="1" d="M80,584.83 L1279,584.83" />
<path fill="#00000000" stroke="#dddddd"  stroke-width="1" d="M80,577.589 L1279,577.589" />
<path fill="#00000000" stroke="#dddddd"  stroke-width="1" d="M80,571.316 L1279,571.316" />
<path fill="#00000000" stroke="#dddddd"  stroke-width="1" d="M80,565.783 L1279,565.783" />
<path fill="#00000000" stroke="#dddddd"  stroke-width="1" d="M80,528.272 L1279,528.272" />
<path fill="#00000000" stroke="#dddddd"  stroke-width="1" d="M80,509.225 L1279,509.225" />
<path fill="#00000000" stroke="#dddddd"  stroke-width="1" d="M80,495.711 L1279,495.711" />
<path fill="#00000000" stroke="#dddddd"  stroke-width="1" d="M80,485.228 L1279,485.228" />
<path fill="#00000000" stroke="#dddddd"  stroke-width="1" d="M80,476.663 L1279,476.663" />
<path fill="#00000000" stroke="#dddddd"  stroke-width="1" d="M80,469.422 L1279,469.422" />
<path fill="#00000000" stroke="#dddddd"  stroke-width="1" d="M80,463.149 L1279,463.149" />
<path fill="#00000000" stroke="#dddddd"  stroke-width="1" d="M80,457.616 L1279,457.616" />
<path fill="#00000000" stroke="#dddddd"  stroke-width="1" d="M80,420.105 L1279,420.105" />
<path fill="#00000000" stroke="#dddddd"  stroke-width="1" d="M80,401.058 L1279,401.058" />
<path fill="#00000000" stroke="#dddddd"  stroke-width="1" d="M80,387.544 L1279,387.544" />
<path fill="#00000000" stroke="#dddddd"  stroke-width="1" d="M80,377.061 L1279,377.061" />
<path fill="#00000000" stroke="#dddddd"  stroke-width="1" d="M80,368.497 L1279,368.497" />
<path fill="#00000000" stroke="#dddddd"  stroke-width="1" d="M80,361.255 L1279,361.255" />
<path fill="#00000000" stroke="#dddddd"  stroke-width="1" d="M80,354.982 L1279,354.982" />
<path fill="#00000000" stroke="#dddddd"  stroke-width="1" d="M80,349.449 L1279,349.449" />
<path fill="#00000000" stroke="#dddddd"  stroke-width="1" d="M80,311.939 L1279,311.939" />
<path fill="#00000000" stroke="#dddddd"  stroke-width="1" d="M80,292.891 L1279,292.891" />
<path fill="#00000000" stroke="#dddddd"  stroke-width="1" d="M80,279.377 L1279,279.377" />
<path fill="#00000000" stroke="#dddddd"  stroke-width="1" d="M80,268.895 L1279,268.895" />
<path fill="#00000000" stroke="#dddddd"  stroke-width="1" d="M80,260.33 L1279,260.33" />
<path fill="#00000000" stroke="#dddddd"  stroke-width="1" d="M80,253.089 L1279,253.089" />
<path fill="#00000000" stroke="#dddddd"  stroke-width="1" d="M80,246.816 L1279,246.816" />
<path fill="#00000000" stroke="#dddddd"  stroke-width="1" d="M80,241.283 L1279,241.283" />
<path fill="#00000000" stroke="#dddddd"  stroke-width="1" d="M80,203.772 L1279,203.772" />
<path fill="#00000000" stroke="#dddddd"  stroke-width="1" d="M80,184.725 L1279,184.725" />
<path fill="#00000000" stroke="#dddddd"  stroke-width="1" d="M80,171.211 L1279,171.211" />
<path fill="#00000000" stroke="#dddddd"  stroke-width="1" d="M80,160.728 L1279,160.728" />
<path fill="#00000000" stroke="#dddddd"  stroke-width="1" d="M80,152.163 L1279,152.163" />
<path fill="#00000000" stroke="#dddddd"  stroke-width="1" d="M80,144.922 L1279,144.922" />
<path fill="#00000000" stroke="#dddddd"  stroke-width="1" d="M80,138.649 L1279,138.649" />
<path fill="#00000000" stroke="#dddddd"  stroke-width="1" d="M80,133.116 L1279,133.116" />
<path fill="#00000000" stroke="#dddddd"  stroke-width="1" d="M80,95.6053 L1279,95.6053" />
<path fill="#00000000" stroke="#dddddd"  stroke-width="1" d="M80,76.5581 L1279,76.5581" />
<path fill="#00000000" stroke="#dddddd"  stroke-width="1" d="M80,63.0438 L1279,63.0438" />
<path fill="#00000000" stroke="#dddddd"  stroke-width="1" d="M80,52.5614 L1279,52.5614" />
<path fill="#00000000" stroke="#dddddd"  stroke-width="1" d="M80,43.9966 L1279,43.9966" />
<path fill="#00000000" stroke="#dddddd"  stroke-width="1" d="M80,36.7552 L1279,36.7552" />
<path fill="#00000000" stroke="#dddddd"  stroke-width="1" d="M80,30.4824 L1279,30.4824" />
<path fill="#00000000" stroke="#dddddd"  stroke-width="1" d="M80,24.9494 L1279,24.9494" />
<text text-anchor="end" x="62" y="675" font-size="20px" fill="#000000">10</text>
<text text-anchor="end" x="70" y="665" font-size="16px" fill="#000000">2</text>
<text text-anchor="end" x="62" y="566.833" font-size="20px" fill="#000000">10</text>
<text text-anchor="end" x="70" y="556.833" font-size="16px" fill="#000000">3</text>
<text text-anchor="end" x="62" y="458.667" font-size="20px" fill="#000000">10</text>
<text text-anchor="end" x="70" y="448.667" font-size="16px" fill="#000000">4</text>
<text text-anchor="end" x="62" y="350.5" font-size="20px" fill="#000000">10</text>
<text text-anchor="end" x="70" y="340.5" font-size="16px" fill="#000000">5</text>
<text text-anchor="end" x="62" y="242.333" font-size="20px" fill="#000000">10</text>
<text text-anchor="end" x="70" y="232.333" font-size="16px" fill="#000000">6</text>
<text text-anchor="end" x="62" y="134.167" font-size="20px" fill="#000000">10</text>
<text text-anchor="end" x="70" y="124.167" font-size="16px" fill="#000000">7</text>
<text text-anchor="end" x="62" y="26" font-size="20px" fill="#000000">10</text>
<text text-anchor="end" x="70" y="16" font-size="16px" fill="#000000">8</text>
<path fill="#00000000" stroke="#dddddd" stroke-width="1" d="M97,0 L97,669" />
<path fill="#00000000" stroke="#dddddd" stroke-width="1" d="M115,0 L115,669" />
<path fill="#00000000" stroke="#dddddd" stroke-width="1" d="M132,0 L132,669" />
<path fill="#00000000" stroke="#dddddd" stroke-width="1" d="M150,0 L150,669" />
<path fill="#00000000" stroke="#dddddd" stroke-width="1" d="M167,0 L167,669" />
<path fill="#00000000" stroke="#dddddd" stroke-width="1" d="M185,0 L185,669" />
<path fill="#00000000" stroke="#dddddd" stroke-width="1" d="M202,0 L202,669" />
<path fill="#00000000" stroke="#dddddd" stroke-width="1" d="M220,0 L220,669" />
<path fill="#00000000" stroke="#dddddd" stroke-width="1" d="M237,0 L237,669" />
<path fill="#00000000" stroke="#dddddd" stroke-width="1" d="M272,0 L272,669" />
<path fill="#00000000" stroke="#dddddd" stroke-width="1" d="M290,0 L290,669" />
<path fill="#00000000" stroke="#dddddd" stroke-width="1" d="M307,0 L307,669" />
<path fill="#00000000" stroke="#dddddd" stroke-width="1" d="M325,0 L325,669" />
<path fill="#00000000" stroke="#dddddd" stroke-width="1" d="M342,0 L342,669" />
<path fill="#00000000" stroke="#dddddd" stroke-width="1" d="M360,0 L360,669" />
<path fill="#00000000" stroke="#dddddd" stroke-width="1" d="M377,0 L377,669" />
<path fill="#00000000" stroke="#dddddd" stroke-width="1" d="M395,0 L395,669" />
<path fill="#00000000" stroke="#dddddd" stroke-width="1" d="M412,0 L412,669" />
<path fill="#00000000" stroke="#dddddd" stroke-width="1" d="M447,0 L447,669" />
<path fill="#00000000" stroke="#dddddd" stroke-width="1" d="M465,0 L465,669" />
<path fill="#00000000" stroke="#dddddd" stroke-width="1" d="M482,0 L482,669" />
<path fill="#00000000" stroke="#dddddd" stroke-width="1" d="M500,0 L500,669" />
<path fill="#00000000" stroke="#dddddd" stroke-width="1" d="M517,0 L517,669" />
<path fill="#00000000" stroke="#dddddd" stroke-width="1" d="M535,0 L535,669" />
<path fill="#00000000" stroke="#dddddd" stroke-width="1" d="M552,0 L552,669" />
<path fill="#00000000" stroke="#dddddd" stroke-width="1" d="M570,0 L570,669" />
<path fill="#00000000" stroke="#dddddd" stroke-width="1" d="M587,0 L587,669" />
<path fill="#00000000" stroke="#dddddd" stroke-width="1" d="M622,0 L622,669" />
<path fill="#00000000" stroke="#dddddd" stroke-width="1" d="M640,0 L640,669" />
<path fill="#00000000" stroke="#dddddd" stroke-width="1" d="M657,0 L657,669" />
<path fill="#00000000" stroke="#dddddd" stroke-width="1" d="M675,0 L675,669" />
<path fill="#00000000" stroke="#dddddd" stroke-width="1" d="M692,0 L692,669" />
<path fill="#00000000" stroke="#dddddd" stroke-width="1" d="M710,0 L710,669" />
<path fill="#00000000" stroke="#dddddd" stroke-width="1" d="M727,0 L727,669" />
<path fill="#00000000" stroke="#dddddd" stroke-width="1" d="M745,0 L745,669" />
<path fill="#00000000" stroke="#dddddd" stroke-width="1" d="M762,0 L762,669" />
<path fill="#00000000" stroke="#dddddd" stroke-width="1" d="M797,0 L797,669" />
<path fill="#00000000" stroke="#dddddd" stroke-width="1" d="M815,0 L815,669" />
<path fill="#00000000" stroke="#dddddd" stroke-width="1" d="M832,0 L832,669" />
<path fill="#00000000" stroke="#dddddd" stroke-width="1" d="M850,0 L850,669" />
<path fill="#00000000" stroke="#dddddd" stroke-width="1" d="M867,0 L867,669" />
<path fill="#00000000" stroke="#dddddd" stroke-width="1" d="M885,0 L885,669" />
<path fill="#00000000" stroke="#dddddd" stroke-width="1" d="M902,0 L902,669" />
<path fill="#00000000" stroke="#dddddd" stroke-width="1" d="M920,0 L920,669" />
<path fill="#00000000" stroke="#dddddd" stroke-width="1" d="M937,0 L937,669" />
<path fill="#00000000" stroke="#dddddd" stroke-width="1" d="M972,0 L972,669" />
<path fill="#00000000" stroke="#dddddd" stroke-width="1" d="M990,0 L990,669" />
<path fill="#00000000" stroke="#dddddd" stroke-width="1" d="M1007,0 L1007,669" />
<path fill="#00000000" stroke="#dddddd" stroke-width="1" d="M1025,0 L1025,669" />
<path fill="#00000000" stroke="#dddddd" stroke-width="1" d="M1042,0 L1042,669" />
<path fill="#00000000" stroke="#dddddd" stroke-width="1" d="M1060,0 L1060,669" />
<path fill="#00000000" stroke="#dddddd" stroke-width="1" d="M1078,0 L1078,669" />
<path fill="#00000000" stroke="#dddddd" stroke-width="1" d="M1095,0 L1095,669" />
<path fill="#00000000" stroke="#dddddd" stroke-width="1" d="M1113,0 L1113,669" />
<path fill="#00000000" stroke="#dddddd" stroke-width="1" d="M1148,0 L1148,669" />
<path fill="#00000000" stroke="#dddddd" stroke-width="1" d="M1165,0 L1165,669" />
<path fill="#00000000" stroke="#dddddd" stroke-width="1" d="M1183,0 L1183,669" />
<path fill="#00000000" stroke="#dddddd" stroke-width="1" d="M1200,0 L1200,669" />
<path fill="#00000000" stroke="#dddddd" stroke-width="1" d="M1218,0 L1218,669" />
<path fill="#00000000" stroke="#dddddd" stroke-width="1" d="M1235,0 L1235,669" />
<path fill="#00000000" stroke="#dddddd" stroke-width="1" d="M1253,0 L1253,669" />
<path fill="#00000000" stroke="#dddddd" stroke-width="1" d="M1270,0 L1270,669" />
<path fill="#00000000" stroke="#555555" stroke-width="1" d="M80,0 L80,669" />
<path fill="#00000000" stroke="#000000" stroke-width="2" d="M80,669 L80,677" />
<text text-anchor="middle" x="80" y="703" font-size="20px" fill="#000000">00:00:00.000000</text>
<path fill="#00000000" stroke="#555555" stroke-width="1" d="M255,0 L255,669" />
<path fill="#00000000" stroke="#555555" stroke-width="1" d="M430,0 L430,669" />
<path fill="#00000000" stroke="#000000" stroke-width="2" d="M430,669 L430,677" />
<text text-anchor="middle" x="430" y="703" font-size="20px" fill="#000000">00:00:02.000000</text>
<path fill="#00000000" stroke="#555555" stroke-width="1" d="M605,0 L605,669" />
<path fill="#00000000" stroke="#555555" stroke-width="1" d="M780,0 L780,669" />
<path fill="#00000000" stroke="#000000" stroke-width="2" d="M780,669 L780,677" />
<text text-anchor="middle" x="780" y="703" font-size="20px" fill="#000000">00:00:04.000000</text>
<path fill="#00000000" stroke="#555555" stroke-width="1" d="M955,0 L955,669" />
<path fill="#00000000" stroke="#555555" stroke-width="1" d="M1130,0 L1130,669" />
<path fill="#00000000" stroke="#000000" stroke-width="2" d="M1130,669 L1130,677" />
<text text-anchor="middle" x="1130" y="703" font-size="20px" fill="#000000">00:00:06.000000</text>
<path fill="#00000000" stroke="#555555" stroke-width="1" d="M80,560.833 L1279,560.833" />
<path fill="#00000000" stroke="#555555" stroke-width="1" d="M80,452.667 L1279,452.667" />
<path fill="#00000000" stroke="#555555" stroke-width="1" d="M80,344.5 L1279,344.5" />
<path fill="#00000000" stroke="#555555" stroke-width="1" d="M80,236.333 L1279,236.333" />
<path fill="#00000000" stroke="#555555" stroke-width="1" d="M80,128.167 L1279,128.167" />
<path fill="#00000000" stroke="#555555" stroke-width="1" d="M80,20 L1279,20" />
<path fill="#c4d7f5" stroke="#c4d7f5" stroke-width="4" d="M80,560.833 L81,469.422 L82,469.422 L83,444.102 L84,457.616 L85,448.189 L86,457.616 L87,485.228 L88,476.663 L89,452.667 L90,440.342 L91,463.149 L92,457.616 L93,448.189 L94,452.667 L95,444.102 L96,469.422 L97,440.342 L98,463.149 L99,448.189 L100,463.149 L101,448.189 L102,436.86 L103,469.422 L104,448.189 L105,440.342 L106,463.149 L107,469.422 L108,452.667 L109,444.102 L110,452.667 L111,448.189 L112,452.667 L113,452.667 L114,469.422 L115,457.616 L116,448.189 L117,463.149 L118,463.149 L119,457.616 L120,457.616 L121,457.616 L122,463.149 L123,469.422 L124,448.189 L125,457.616 L126,463.149 L127,476.663 L128,469.422 L129,476.663 L130,444.102 L131,485.228 L132,452.667 L133,444.102 L134,452.667 L135,444.102 L136,476.663 L137,463.149 L138,444.102 L139,457.616 L140,476.663 L141,457.616 L142,452.667 L143,463.149 L144,444.102 L145,457.616 L146,440.342 L147,476.663 L148,457.616 L149,476.663 L150,463.149 L151,463.149 L152,457.616 L153,457.616 L154,457.616 L155,452.667 L156,448.189 L157,476.663 L158,448.189 L159,463.149 L160,440.342 L161,448.189 L162,457.616 L163,448.189 L164,476.663 L165,457.616 L166,452.667 L167,469.422 L168,463.149 L169,444.102 L170,452.667 L171,476.663 L172,476.663 L173,457.616 L174,485.228 L175,452.667 L176,457.616 L177,457.616 L178,448.189 L179,448.189 L180,463.149 L181,430.588 L182,463.149 L183,457.616 L184,444.102 L185,469.422 L186,457.616 L187,469.422 L188,444.102 L189,457.616 L190,476.663 L191,440.342 L192,485.228 L193,457.616 L194,457.616 L195,457.616 L196,463.149 L197,463.149 L198,469.422 L199,469.422 L200,448.189 L201,463.149 L202,448.189 L203,463.149 L204,452.667 L205,452.667 L206,444.102 L207,457.616 L208,457.616 L209,452.667 L210,452.667 L211,476.663 L212,444.102 L213,457.616 L214,440.342 L215,463.149 L216,433.619 L217,463.149 L218,440.342 L219,444.102 L220,463.149 L221,452.667 L222,444.102 L223,457.616 L224,448.189 L225,448.189 L226,457.616 L227,463.149 L228,448.189 L229,495.711 L230,440.342 L231,448.189 L232,448.189 L233,457.616 L234,452.667 L235,452.667 L236,463.149 L237,457.616 L238,444.102 L239,463.149 L240,448.189 L241,469.422 L242,463.149 L243,469.422 L244,430.588 L245,457.616 L246,452.667 L247,440.342 L248,436.86 L249,440.342 L250,448.189 L251,463.149 L252,452.667 L253,448.189 L254,485.228 L255,463.149 L256,444.102 L257,452.667 L258,448.189 L259,452.667 L260,457.616 L261,448.189 L262,463.149 L263,448.189 L264,457.616 L265,440.342 L266,440.342 L267,436.86 L268,457.616 L269,457.616 L270,452.667 L271,452.667 L272,436.86 L273,457.616 L274,452.667 L275,457.616 L276,457.616 L277,444.102 L278,476.663 L279,448.189 L280,457.616 L281,440.342 L282,452.667 L283,457.616 L284,440.342 L285,448.189 L286,436.86 L287,448.189 L288,452.667 L289,463.149 L290,452.667 L291,476.663 L292,469.422 L293,433.619 L294,457.616 L295,463.149 L296,485.228 L297,448.189 L298,444.102 L299,452.667 L300,457.616 L301,448.189 L302,457.616 L303,436.86 L304,463.149 L305,444.102 L306,469.422 L307,427.74 L308,463.149 L309,457.616 L310,457.616 L311,463.149 L312,444.102 L313,448.189 L314,457.616 L315,452.667 L316,440.342 L317,457.616 L318,463.149 L319,436.86 L320,440.342 L321,440.342 L322,457.616 L323,444.102 L324,444.102 L325,452.667 L326,436.86 L327,469.422 L328,444.102 L329,457.616 L330,463.149 L331,452.667 L332,469.422 L333,436.86 L334,463.149 L335,444.102 L336,448.189 L337,457.616 L338,448.189 L339,433.619 L340,430.588 L341,457.616 L342,433.619 L343,457.616 L344,452.667 L345,457.616 L346,448.189 L347,457.616 L348,444.102 L349,436.86 L350,457.616 L351,452.667 L352,469.422 L353,476.663 L354,448.189 L355,463.149 L356,444.102 L357,452.667 L358,444.102 L359,448.189 L360,444.102 L361,440.342 L362,469.422 L363,457.616 L364,452.667 L365,448.189 L366,440.342 L367,463.149 L368,448.189 L369,448.189 L370,444.102 L371,452.667 L372,448.189 L373,485.228 L374,452.667 L375,457.616 L376,476.663 L377,444.102 L378,452.667 L379,463.149 L380,457.616 L381,452.667 L382,452.667 L383,452.667 L384,463.149 L385,463.149 L386,452.667 L387,463.149 L388,476.663 L389,444.102 L390,476.663 L391,452.667 L392,444.102 L393,452.667 L394,457.616 L395,469.422 L396,463.149 L397,457.616 L398,448.189 L399,463.149 L400,485.228 L401,476.663 L402,452.667 L403,476.663 L404,469.422 L405,452.667 L406,448.189 L407,452.667 L408,440.342 L409,457.616 L410,457.616 L411,463.149 L412,436.86 L413,448.189 L414,457.616 L415,476.663 L416,440.342 L417,440.342 L418,463.149 L419,448.189 L420,463.149 L421,448.189 L422,469.422 L423,463.149 L424,436.86 L425,448.189 L426,448.189 L427,463.149 L428,444.102 L429,433.619 L430,476.663 L431,457.616 L432,469.422 L433,433.619 L434,452.667 L435,452.667 L436,485.228 L437,452.667 L438,452.667 L439,452.667 L440,440.342 L441,452.667 L442,476.663 L443,476.663 L444,457.616 L445,444.102 L446,463.149 L447,448.189 L448,469.422 L449,457.616 L450,457.616 L451,469.422 L452,436.86 L453,452.667 L454,444.102 L455,469.422 L456,440.342 L457,430.588 L458,463.149 L459,444.102 L460,469.422 L461,448.189 L462,463.149 L463,440.342 L464,452.667 L465,452.667 L466,444.102 L467,452.667 L468,440.342 L469,469.422 L470,452.667 L471,448.189 L472,476.663 L473,469.422 L474,469.422 L475,436.86 L476,457.616 L477,457.616 L478,469.422 L479,469.422 L480,469.422 L481,469.422 L482,485.228 L483,457.616 L484,476.663 L485,448.189 L486,457.616 L487,463.149 L488,476.663 L489,463.149 L490,457.616 L491,444.102 L492,448.189 L493,457.616 L494,448.189 L495,463.149 L496,463.149 L497,469.422 L498,440.342 L499,457.616 L500,495.711 L501,444.102 L502,463.149 L503,452.667 L504,457.616 L505,433.619 L506,444.102 L507,457.616 L508,452.667 L509,448.189 L510,448.189 L511,452.667 L512,495.711 L513,448.189 L514,485.228 L515,452.667 L516,457.616 L517,427.74 L518,476.663 L519,444.102 L520,452.667 L521,452.667 L522,448.189 L523,444.102 L524,448.189 L525,469.422 L526,448.189 L527,444.102 L528,463.149 L529,433.619 L530,448.189 L531,436.86 L532,457.616 L533,436.86 L534,452.667 L535,457.616 L536,457.616 L537,457.616 L538,469.422 L539,463.149 L540,452.667 L541,463.149 L542,452.667 L543,452.667 L544,469.422 L545,448.189 L546,295.466 L547,164.563 L548,138.814 L549,117.952 L550,104.367 L551,84.2497 L552,59.7876 L553,49.4622 L554,56.4243 L555,59.2234 L556,64.5656 L557,174.456 L558,224.444 L559,231.686 L560,254.243 L561,256.933 L562,270.52 L563,269.652 L564,281.417 L565,292.735 L566,291.049 L567,296.3 L568,296.638 L569,305.169 L570,302.023 L571,312.411 L572,311.471 L573,308.323 L574,312.888 L575,312.888 L576,320.41 L577,316.369 L578,325.453 L579,325.767 L580,323.912 L581,328.694 L582,325.767 L583,331.103 L584,335.545 L585,340.452 L586,335.545 L587,334.775 L588,335.935 L589,336.725 L590,340.023 L591,339.176 L592,345.449 L593,343.111 L594,342.658 L595,346.91 L596,343.57 L597,345.931 L598,342.658 L599,345.931 L600,344.5 L601,344.5 L602,347.407 L603,352.69 L604,358.645 L605,356.778 L606,351.042 L607,358.014 L608,350.505 L609,363.313 L610,349.449 L611,354.982 L612,354.982 L613,352.69 L614,358.645 L615,356.778 L616,364.019 L617,361.255 L618,364.737 L619,359.284 L620,365.465 L621,362.617 L622,359.932 L623,361.255 L624,363.313 L625,372.584 L626,371.738 L627,372.584 L628,368.497 L629,364.737 L630,370.906 L631,361.931 L632,365.465 L633,372.584 L634,369.286 L635,374.324 L636,366.956 L637,386.384 L638,371.738 L639,382.011 L640,374.324 L641,387.544 L642,377.061 L643,376.131 L644,380.978 L645,376.131 L646,389.953 L647,377.061 L648,386.384 L649,385.252 L650,378.01 L651,382.011 L652,378.01 L653,391.206 L654,386.384 L655,379.968 L656,378.01 L657,375.219 L658,389.953 L659,375.219 L660,386.384 L661,379.968 L662,387.544 L663,384.146 L664,376.131 L665,389.953 L666,379.968 L667,396.581 L668,396.581 L669,389.953 L670,384.146 L671,391.206 L672,396.581 L673,382.011 L674,395.178 L675,389.953 L676,392.493 L677,402.651 L678,380.978 L679,396.581 L680,388.733 L681,393.817 L682,393.817 L683,391.206 L684,399.518 L685,383.067 L686,401.058 L687,392.493 L688,395.178 L689,407.78 L690,402.651 L691,398.026 L692,406.007 L693,396.581 L694,396.581 L695,404.299 L696,404.299 L697,395.178 L698,406.007 L699,387.544 L700,415.628 L701,398.026 L702,395.178 L703,409.623 L704,413.54 L705,413.54 L706,392.493 L707,406.007 L708,402.651 L709,427.74 L710,399.518 L711,407.78 L712,406.007 L713,406.007 L714,406.007 L715,422.515 L716,430.588 L717,398.026 L718,402.651 L719,409.623 L720,402.651 L721,413.54 L722,420.105 L723,422.515 L724,411.54 L725,415.628 L726,411.54 L727,407.78 L728,430.588 L729,407.78 L730,420.105 L731,415.628 L732,404.299 L733,411.54 L734,402.651 L735,411.54 L736,420.105 L737,404.299 L738,422.515 L739,425.055 L740,427.74 L741,413.54 L742,409.623 L743,420.105 L744,411.54 L745,417.813 L746,415.628 L747,422.515 L748,402.651 L749,415.628 L750,407.78 L751,417.813 L752,417.813 L753,422.515 L754,415.628 L755,402.651 L756,422.515 L757,413.54 L758,417.813 L759,422.515 L760,425.055 L761,406.007 L762,406.007 L763,409.623 L764,415.628 L765,427.74 L766,422.515 L767,415.628 L768,436.86 L769,411.54 L770,430.588 L771,420.105 L772,422.515 L773,433.619 L774,415.628 L775,433.619 L776,411.54 L777,448.189 L778,430.588 L779,417.813 L780,420.105 L781,417.813 L782,425.055 L783,415.628 L784,430.588 L785,430.588 L786,422.515 L787,425.055 L788,430.588 L789,427.74 L790,417.813 L791,433.619 L792,417.813 L793,433.619 L794,448.189 L795,420.105 L796,440.342 L797,427.74 L798,430.588 L799,425.055 L800,433.619 L801,444.102 L802,425.055 L803,430.588 L804,411.54 L805,430.588 L806,425.055 L807,436.86 L808,440.342 L809,417.813 L810,430.588 L811,415.628 L812,417.813 L813,422.515 L814,427.74 L815,444.102 L816,430.588 L817,452.667 L818,436.86 L819,457.616 L820,427.74 L821,433.619 L822,433.619 L823,425.055 L824,427.74 L825,436.86 L826,444.102 L827,425.055 L828,444.102 L829,422.515 L830,422.515 L831,436.86 L832,422.515 L833,433.619 L834,422.515 L835,436.86 L836,433.619 L837,427.74 L838,448.189 L839,422.515 L840,440.342 L841,436.86 L842,430.588 L843,452.667 L844,433.619 L845,448.189 L846,411.54 L847,448.189 L848,425.055 L849,433.619 L850,430.588 L851,430.588 L852,452.667 L853,433.619 L854,436.86 L855,430.588 L856,440.342 L857,436.86 L858,436.86 L859,436.86 L860,430.588 L861,433.619 L862,440.342 L863,448.189 L864,444.102 L865,436.86 L866,433.619 L867,422.515 L868,457.616 L869,422.515 L870,463.149 L871,436.86 L872,430.588 L873,433.619 L874,422.515 L875,436.86 L876,440.342 L877,440.342 L878,430.588 L879,427.74 L880,457.616 L881,457.616 L882,452.667 L883,433.619 L884,452.667 L885,440.342 L886,430.588 L887,444.102 L888,430.588 L889,448.189 L890,440.342 L891,427.74 L892,444.102 L893,452.667 L894,457.616 L895,427.74 L896,452.667 L897,457.616 L898,463.149 L899,452.667 L900,452.667 L901,436.86 L902,436.86 L903,469.422 L904,433.619 L905,430.588 L906,448.189 L907,436.86 L908,457.616 L909,436.86 L910,436.86 L911,427.74 L912,444.102 L913,440.342 L914,440.342 L915,436.86 L916,427.74 L917,448.189 L918,457.616 L919,436.86 L920,448.189 L921,448.189 L922,444.102 L923,433.619 L924,463.149 L925,436.86 L926,440.342 L927,444.102 L928,430.588 L929,452.667 L930,433.619 L931,440.342 L932,444.102 L933,436.86 L934,448.189 L935,425.055 L936,440.342 L937,425.055 L938,436.86 L939,422.515 L940,430.588 L941,433.619 L942,436.86 L943,452.667 L944,433.619 L945,448.189 L946,440.342 L947,440.342 L948,440.342 L949,444.102 L950,469.422 L951,436.86 L952,444.102 L953,436.86 L954,452.667 L955,452.667 L956,476.663 L957,448.189 L958,436.86 L959,444.102 L960,444.102 L961,452.667 L962,440.342 L963,444.102 L964,440.342 L965,427.74 L966,452.667 L967,420.105 L968,444.102 L969,469.422 L970,469.422 L971,436.86 L972,452.667 L973,469.422 L974,440.342 L975,485.228 L976,452.667 L977,463.149 L978,448.189 L979,452.667 L980,463.149 L981,469.422 L982,448.189 L983,440.342 L984,448.189 L985,452.667 L986,433.619 L987,457.616 L988,440.342 L989,452.667 L990,448.189 L991,436.86 L992,440.342 L993,436.86 L994,436.86 L995,425.055 L996,452.667 L997,436.86 L998,425.055 L999,457.616 L1000,440.342 L1001,448.189 L1002,436.86 L1003,452.667 L1004,452.667 L1005,444.102 L1006,448.189 L1007,440.342 L1008,440.342 L1009,444.102 L1010,440.342 L1011,436.86 L1012,452.667 L1013,452.667 L1014,440.342 L1015,448.189 L1016,448.189 L1017,469.422 L1018,448.189 L1019,440.342 L1020,444.102 L1021,436.86 L1022,448.189 L1023,440.342 L1024,436.86 L1025,444.102 L1026,452.667 L1027,476.663 L1028,444.102 L1029,440.342 L1030,415.628 L1031,436.86 L1032,444.102 L1033,452.667 L1034,463.149 L1035,440.342 L1036,463.149 L1037,444.102 L1038,457.616 L1039,444.102 L1040,448.189 L1041,457.616 L1042,430.588 L1043,457.616 L1044,436.86 L1045,469.422 L1046,436.86 L1047,440.342 L1048,448.189 L1049,436.86 L1050,463.149 L1051,444.102 L1052,469.422 L1053,452.667 L1054,457.616 L1055,469.422 L1056,427.74 L1057,448.189 L1058,425.055 L1059,440.342 L1060,436.86 L1061,448.189 L1062,448.189 L1063,448.189 L1064,452.667 L1065,436.86 L1066,448.189 L1067,469.422 L1068,457.616 L1069,469.422 L1070,433.619 L1071,448.189 L1072,440.342 L1073,448.189 L1074,448.189 L1075,444.102 L1076,457.616 L1077,433.619 L1078,448.189 L1079,440.342 L1080,448.189 L1081,485.228 L1082,448.189 L1083,444.102 L1084,430.588 L1085,452.667 L1086,457.616 L1087,452.667 L1088,448.189 L1089,457.616 L1090,463.149 L1091,448.189 L1092,457.616 L1093,440.342 L1094,452.667 L1095,440.342 L1096,440.342 L1097,452.667 L1098,430.588 L1099,452.667 L1100,430.588 L1101,452.667 L1102,463.149 L1103,433.619 L1104,448.189 L1105,452.667 L1106,463.149 L1107,452.667 L1108,463.149 L1109,457.616 L1110,463.149 L1111,444.102 L1112,433.619 L1113,444.102 L1114,452.667 L1115,448.189 L1116,457.616 L1117,433.619 L1118,457.616 L1119,436.86 L1120,463.149 L1121,433.619 L1122,463.149 L1123,436.86 L1124,444.102 L1125,457.616 L1126,452.667 L1127,452.667 L1128,440.342 L1129,436.86 L1130,457.616 L1131,440.342 L1132,476.663 L1133,463.149 L1134,469.422 L1135,457.616 L1136,463.149 L1137,444.102 L1138,452.667 L1139,448.189 L1140,457.616 L1141,463.149 L1142,433.619 L1143,463.149 L1144,469.422 L1145,463.149 L1146,469.422 L1147,457.616 L1148,485.228 L1149,436.86 L1150,463.149 L1151,448.189 L1152,463.149 L1153,463.149 L1154,448.189 L1155,476.663 L1156,457.616 L1157,444.102 L1158,448.189 L1159,452.667 L1160,476.663 L1161,452.667 L1162,452.667 L1163,440.342 L1164,444.102 L1165,457.616 L1166,463.149 L1167,469.422 L1168,452.667 L1169,457.616 L1170,436.86 L1171,452.667 L1172,469.422 L1173,457.616 L1174,448.189 L1175,448.189 L1176,463.149 L1177,444.102 L1178,469.422 L1179,463.149 L1180,444.102 L1181,463.149 L1182,444.102 L1183,495.711 L1184,440.342 L1185,452.667 L1186,463.149 L1187,476.663 L1188,469.422 L1189,433.619 L1190,452.667 L1191,457.616 L1192,448.189 L1193,476.663 L1194,440.342 L1195,452.667 L1196,448.189 L1197,463.149 L1198,463.149 L1199,463.149 L1200,463.149 L1201,463.149 L1202,485.228 L1203,457.616 L1204,463.149 L1205,433.619 L1206,469.422 L1207,452.667 L1208,444.102 L1209,463.149 L1210,452.667 L1211,469.422 L1212,463.149 L1213,452.667 L1214,469.422 L1215,452.667 L1216,469.422 L1217,448.189 L1218,463.149 L1219,444.102 L1220,463.149 L1221,463.149 L1222,452.667 L1223,476.663 L1224,469.422 L1225,485.228 L1226,444.102 L1227,444.102 L1228,457.616 L1229,452.667 L1230,457.616 L1231,444.102 L1232,448.189 L1233,448.189 L1234,448.189 L1235,436.86 L1236,444.102 L1237,444.102 L1238,433.619 L1239,469.422 L1240,440.342 L1241,469.422 L1242,457.616 L1243,457.616 L1244,476.663 L1245,457.616 L1246,463.149 L1247,452.667 L1248,448.189 L1249,476.663 L1250,476.663 L1251,457.616 L1252,448.189 L1253,457.616 L1254,444.102 L1255,457.616 L1256,448.189 L1257,457.616 L1258,448.189 L1259,457.616 L1260,452.667 L1261,444.102 L1262,452.667 L1263,436.86 L1264,457.616 L1265,457.616 L1266,448.189 L1267,469.422 L1268,452.667 L1269,457.616 L1270,469.422 L1271,448.189 L1272,444.102 L1273,433.619 L1274,444.102 L1275,448.189 L1276,485.228 L1277,444.102 L1278,463.149 L1278,411.54 L1277,396.581 L1276,399.518 L1275,393.817 L1274,406.007 L1273,401.058 L1272,413.54 L1271,396.581 L1270,396.581 L1269,409.623 L1268,393.817 L1267,406.007 L1266,406.007 L1265,409.623 L1264,402.651 L1263,393.817 L1262,396.581 L1261,395.178 L1260,411.54 L1259,406.007 L1258,407.78 L1257,393.817 L1256,407.78 L1255,398.026 L1254,396.581 L1253,396.581 L1252,404.299 L1251,406.007 L1250,396.581 L1249,399.518 L1248,387.544 L1247,402.651 L1246,396.581 L1245,396.581 L1244,415.628 L1243,398.026 L1242,402.651 L1241,392.493 L1240,399.518 L1239,415.628 L1238,409.623 L1237,415.628 L1236,398.026 L1235,398.026 L1234,398.026 L1233,389.953 L1232,413.54 L1231,389.953 L1230,409.623 L1229,392.493 L1228,402.651 L1227,393.817 L1226,389.953 L1225,409.623 L1224,396.581 L1223,398.026 L1222,396.581 L1221,398.026 L1220,396.581 L1219,401.058 L1218,415.628 L1217,411.54 L1216,417.813 L1215,404.299 L1214,411.54 L1213,407.78 L1212,409.623 L1211,404.299 L1210,402.651 L1209,415.628 L1208,395.178 L1207,406.007 L1206,404.299 L1205,389.953 L1204,407.78 L1203,404.299 L1202,415.628 L1201,392.493 L1200,406.007 L1199,402.651 L1198,407.78 L1197,420.105 L1196,407.78 L1195,407.78 L1194,399.518 L1193,406.007 L1192,401.058 L1191,396.581 L1190,413.54 L1189,396.581 L1188,411.54 L1187,393.817 L1186,409.623 L1185,411.54 L1184,407.78 L1183,417.813 L1182,399.518 L1181,420.105 L1180,402.651 L1179,401.058 L1178,398.026 L1177,401.058 L1176,417.813 L1175,407.78 L1174,399.518 L1173,401.058 L1172,407.78 L1171,409.623 L1170,402.651 L1169,406.007 L1168,399.518 L1167,413.54 L1166,392.493 L1165,411.54 L1164,399.518 L1163,404.299 L1162,415.628 L1161,396.581 L1160,396.581 L1159,398.026 L1158,406.007 L1157,402.651 L1156,415.628 L1155,422.515 L1154,406.007 L1153,420.105 L1152,411.54 L1151,409.623 L1150,407.78 L1149,404.299 L1148,415.628 L1147,401.058 L1146,427.74 L1145,392.493 L1144,420.105 L1143,402.651 L1142,398.026 L1141,427.74 L1140,404.299 L1139,404.299 L1138,404.299 L1137,404.299 L1136,406.007 L1135,404.299 L1134,413.54 L1133,413.54 L1132,413.54 L1131,406.007 L1130,401.058 L1129,393.817 L1128,404.299 L1127,411.54 L1126,406.007 L1125,415.628 L1124,402.651 L1123,393.817 L1122,396.581 L1121,398.026 L1120,413.54 L1119,398.026 L1118,406.007 L1117,392.493 L1116,406.007 L1115,402.651 L1114,396.581 L1113,406.007 L1112,404.299 L1111,411.54 L1110,387.544 L1109,399.518 L1108,407.78 L1107,398.026 L1106,411.54 L1105,388.733 L1104,415.628 L1103,388.733 L1102,393.817 L1101,389.953 L1100,396.581 L1099,399.518 L1098,399.518 L1097,406.007 L1096,391.206 L1095,406.007 L1094,395.178 L1093,404.299 L1092,395.178 L1091,396.581 L1090,409.623 L1089,404.299 L1088,406.007 L1087,422.515 L1086,407.78 L1085,407.78 L1084,384.146 L1083,407.78 L1082,396.581 L1081,399.518 L1080,398.026 L1079,398.026 L1078,404.299 L1077,393.817 L1076,406.007 L1075,395.178 L1074,392.493 L1073,402.651 L1072,389.953 L1071,407.78 L1070,396.581 L1069,404.299 L1068,402.651 L1067,398.026 L1066,396.581 L1065,398.026 L1064,404.299 L1063,393.817 L1062,406.007 L1061,385.252 L1060,401.058 L1059,398.026 L1058,392.493 L1057,398.026 L1056,395.178 L1055,402.651 L1054,398.026 L1053,404.299 L1052,393.817 L1051,409.623 L1050,401.058 L1049,401.058 L1048,402.651 L1047,393.817 L1046,407.78 L1045,393.817 L1044,384.146 L1043,395.178 L1042,393.817 L1041,404.299 L1040,401.058 L1039,385.252 L1038,396.581 L1037,388.733 L1036,415.628 L1035,399.518 L1034,407.78 L1033,404.299 L1032,402.651 L1031,383.067 L1030,389.953 L1029,402.651 L1028,401.058 L1027,413.54 L1026,391.206 L1025,398.026 L1024,396.581 L1023,387.544 L1022,404.299 L1021,401.058 L1020,396.581 L1019,388.733 L1018,393.817 L1017,395.178 L1016,386.384 L1015,401.058 L1014,399.518 L1013,402.651 L1012,401.058 L1011,402.651 L1010,396.581 L1009,388.733 L1008,404.299 L1007,395.178 L1006,399.518 L1005,398.026 L1004,398.026 L1003,401.058 L1002,395.178 L1001,401.058 L1000,402.651 L999,399.518 L998,389.953 L997,395.178 L996,393.817 L995,388.733 L994,406.007 L993,391.206 L992,407.78 L991,393.817 L990,407.78 L989,396.581 L988,395.178 L987,393.817 L986,396.581 L985,406.007 L984,395.178 L983,401.058 L982,395.178 L981,382.011 L980,392.493 L979,401.058 L978,411.54 L977,388.733 L976,395.178 L975,396.581 L974,392.493 L973,409.623 L972,406.007 L971,413.54 L970,395.178 L969,402.651 L968,387.544 L967,393.817 L966,395.178 L965,402.651 L964,402.651 L963,407.78 L962,396.581 L961,402.651 L960,395.178 L959,409.623 L958,385.252 L957,402.651 L956,395.178 L955,398.026 L954,388.733 L953,392.493 L952,395.178 L951,385.252 L950,404.299 L949,396.581 L948,396.581 L947,399.518 L946,385.252 L945,396.581 L944,393.817 L943,396.581 L942,392.493 L941,392.493 L940,396.581 L939,391.206 L938,391.206 L937,384.146 L936,398.026 L935,393.817 L934,401.058 L933,396.581 L932,396.581 L931,401.058 L930,396.581 L929,392.493 L928,386.384 L927,387.544 L926,392.493 L925,384.146 L924,388.733 L923,395.178 L922,401.058 L921,402.651 L920,409.623 L919,399.518 L918,387.544 L917,398.026 L916,392.493 L915,407.78 L914,399.518 L913,395.178 L912,391.206 L911,389.953 L910,401.058 L909,402.651 L908,413.54 L907,395.178 L906,402.651 L905,399.518 L904,398.026 L903,407.78 L902,402.651 L901,404.299 L900,391.206 L899,393.817 L898,391.206 L897,386.384 L896,391.206 L895,393.817 L894,401.058 L893,398.026 L892,389.953 L891,388.733 L890,398.026 L889,391.206 L888,387.544 L887,401.058 L886,393.817 L885,396.581 L884,396.581 L883,384.146 L882,386.384 L881,389.953 L880,407.78 L879,393.817 L878,398.026 L877,387.544 L876,386.384 L875,401.058 L874,395.178 L873,391.206 L872,386.384 L871,401.058 L870,392.493 L869,392.493 L868,393.817 L867,391.206 L866,391.206 L865,389.953 L864,407.78 L863,389.953 L862,389.953 L861,391.206 L860,392.493 L859,406.007 L858,399.518 L857,398.026 L856,391.206 L855,386.384 L854,398.026 L853,389.953 L852,395.178 L851,387.544 L850,392.493 L849,383.067 L848,389.953 L847,396.581 L846,384.146 L845,398.026 L844,387.544 L843,393.817 L842,392.493 L841,404.299 L840,399.518 L839,387.544 L838,398.026 L837,386.384 L836,389.953 L835,388.733 L834,392.493 L833,398.026 L832,383.067 L831,393.817 L830,384.146 L829,386.384 L828,375.219 L827,387.544 L826,398.026 L825,382.011 L824,392.493 L823,392.493 L822,391.206 L821,388.733 L820,380.978 L819,398.026 L818,391.206 L817,393.817 L816,380.978 L815,389.953 L814,389.953 L813,372.584 L812,369.286 L811,379.968 L810,389.953 L809,377.061 L808,388.733 L807,386.384 L806,389.953 L805,389.953 L804,388.733 L803,398.026 L802,385.252 L801,401.058 L800,388.733 L799,378.979 L798,376.131 L797,384.146 L796,406.007 L795,382.011 L794,389.953 L793,391.206 L792,382.011 L791,383.067 L790,378.979 L789,389.953 L788,382.011 L787,386.384 L786,386.384 L785,389.953 L784,392.493 L783,377.061 L782,389.953 L781,370.906 L780,387.544 L779,386.384 L778,377.061 L777,396.581 L776,384.146 L775,388.733 L774,380.978 L773,391.206 L772,382.011 L771,380.978 L770,383.067 L769,374.324 L768,382.011 L767,375.219 L766,387.544 L765,372.584 L764,385.252 L763,372.584 L762,374.324 L761,382.011 L760,371.738 L759,386.384 L758,380.978 L757,382.011 L756,380.978 L755,373.446 L754,379.968 L753,375.219 L752,379.968 L751,373.446 L750,378.979 L749,376.131 L748,380.978 L747,382.011 L746,377.061 L745,380.978 L744,373.446 L743,379.968 L742,372.584 L741,374.324 L740,382.011 L739,370.089 L738,385.252 L737,383.067 L736,377.061 L735,378.979 L734,365.465 L733,382.011 L732,382.011 L731,383.067 L730,376.131 L729,377.061 L728,378.979 L727,364.019 L726,378.979 L725,371.738 L724,383.067 L723,377.061 L722,368.497 L721,371.738 L720,380.978 L719,380.978 L718,371.738 L717,378.979 L716,368.497 L715,368.497 L714,365.465 L713,372.584 L712,380.978 L711,363.313 L710,372.584 L709,369.286 L708,379.968 L707,376.131 L706,370.906 L705,376.131 L704,362.617 L703,370.906 L702,367.72 L701,368.497 L700,366.956 L699,364.019 L698,376.131 L697,370.089 L696,373.446 L695,376.131 L694,376.131 L693,370.906 L692,358.645 L691,369.286 L690,360.589 L689,370.089 L688,370.089 L687,364.019 L686,369.286 L685,359.284 L684,378.979 L683,366.205 L682,370.089 L681,364.019 L680,364.737 L679,364.737 L678,354.399 L677,374.324 L676,367.72 L675,369.286 L674,365.465 L673,366.956 L672,366.956 L671,364.737 L670,366.205 L669,353.253 L668,358.014 L667,367.72 L666,360.589 L665,365.465 L664,358.014 L663,357.392 L662,349.449 L661,359.932 L660,355.573 L659,350.505 L658,357.392 L657,343.111 L656,360.589 L655,355.573 L654,358.645 L653,356.172 L652,353.253 L651,355.573 L650,357.392 L649,357.392 L648,354.399 L647,356.172 L646,360.589 L645,358.645 L644,354.982 L643,354.982 L642,356.172 L641,346.91 L640,352.135 L639,343.57 L638,349.974 L637,351.585 L636,342.208 L635,349.974 L634,347.407 L633,348.417 L632,349.449 L631,345.931 L630,345.931 L629,348.417 L628,341.763 L627,343.57 L626,348.93 L625,345.449 L624,340.023 L623,341.763 L622,340.023 L621,343.57 L620,340.452 L619,337.935 L618,339.176 L617,343.111 L616,339.176 L615,340.023 L614,335.935 L613,332.538 L612,337.125 L611,338.345 L610,334.395 L609,332.903 L608,332.903 L607,332.538 L606,332.538 L605,327.37 L604,332.903 L603,330.056 L602,327.698 L601,330.056 L600,325.767 L599,327.698 L598,322.716 L597,321.837 L596,317.678 L595,322.716 L594,326.722 L593,324.217 L592,323.912 L591,323.31 L590,321.261 L589,318.211 L588,311.471 L587,314.102 L586,316.369 L585,316.112 L584,309.201 L583,312.649 L582,311.239 L581,307.675 L580,305.578 L579,302.984 L578,310.55 L577,295.798 L576,301.833 L575,293.84 L574,291.808 L573,293.048 L572,286.736 L571,295.965 L570,278.332 L569,283.937 L568,281.295 L567,274.369 L566,271.901 L565,266.069 L564,262.329 L563,256.642 L562,247.645 L561,241.86 L560,221.135 L559,221.408 L558,174.38 L557,64.3067 L556,55.8474 L555,55.1047 L554,44.9785 L553,44.8483 L552,48.2501 L551,59.3601 L550,83.8676 L549,104.085 L548,117.91 L547,138.814 L546,164.431 L545,295.632 L544,409.623 L543,395.178 L542,420.105 L541,393.817 L540,401.058 L539,409.623 L538,404.299 L537,404.299 L536,411.54 L535,411.54 L534,395.178 L533,399.518 L532,413.54 L531,395.178 L530,404.299 L529,392.493 L528,415.628 L527,398.026 L526,391.206 L525,399.518 L524,404.299 L523,417.813 L522,396.581 L521,411.54 L520,399.518 L519,404.299 L518,396.581 L517,406.007 L516,422.515 L515,406.007 L514,425.055 L513,406.007 L512,399.518 L511,411.54 L510,395.178 L509,407.78 L508,391.206 L507,407.78 L506,396.581 L505,396.581 L504,409.623 L503,407.78 L502,425.055 L501,402.651 L500,420.105 L499,407.78 L498,391.206 L497,396.581 L496,406.007 L495,420.105 L494,396.581 L493,411.54 L492,413.54 L491,404.299 L490,406.007 L489,404.299 L488,406.007 L487,409.623 L486,411.54 L485,398.026 L484,401.058 L483,407.78 L482,407.78 L481,407.78 L480,411.54 L479,406.007 L478,402.651 L477,396.581 L476,406.007 L475,396.581 L474,404.299 L473,401.058 L472,401.058 L471,404.299 L470,411.54 L469,413.54 L468,411.54 L467,417.813 L466,406.007 L465,413.54 L464,398.026 L463,402.651 L462,406.007 L461,401.058 L460,415.628 L459,407.78 L458,422.515 L457,407.78 L456,409.623 L455,395.178 L454,389.953 L453,404.299 L452,398.026 L451,404.299 L450,404.299 L449,399.518 L448,411.54 L447,396.581 L446,409.623 L445,401.058 L444,411.54 L443,399.518 L442,398.026 L441,404.299 L440,398.026 L439,417.813 L438,396.581 L437,409.623 L436,401.058 L435,411.54 L434,404.299 L433,385.252 L432,406.007 L431,399.518 L430,409.623 L429,399.518 L428,401.058 L427,404.299 L426,398.026 L425,401.058 L424,402.651 L423,407.78 L422,402.651 L421,402.651 L420,406.007 L419,396.581 L418,415.628 L417,396.581 L416,415.628 L415,411.54 L414,402.651 L413,406.007 L412,391.206 L411,401.058 L410,399.518 L409,415.628 L408,406.007 L407,409.623 L406,407.78 L405,402.651 L404,413.54 L403,404.299 L402,413.54 L401,407.78 L400,409.623 L399,404.299 L398,401.058 L397,422.515 L396,392.493 L395,417.813 L394,409.623 L393,396.581 L392,401.058 L391,399.518 L390,413.54 L389,388.733 L388,417.813 L387,409.623 L386,407.78 L385,413.54 L384,417.813 L383,413.54 L382,396.581 L381,399.518 L380,392.493 L379,415.628 L378,406.007 L377,395.178 L376,407.78 L375,402.651 L374,420.105 L373,402.651 L372,402.651 L371,404.299 L370,406.007 L369,406.007 L368,393.817 L367,404.299 L366,402.651 L365,402.651 L364,401.058 L363,406.007 L362,420.105 L361,395.178 L360,425.055 L359,404.299 L358,399.518 L357,396.581 L356,402.651 L355,409.623 L354,398.026 L353,404.299 L352,391.206 L351,398.026 L350,395.178 L349,387.544 L348,407.78 L347,398.026 L346,415.628 L345,395.178 L344,395.178 L343,395.178 L342,399.518 L341,401.058 L340,398.026 L339,399.518 L338,388.733 L337,398.026 L336,404.299 L335,399.518 L334,409.623 L333,402.651 L332,404.299 L331,398.026 L330,395.178 L329,398.026 L328,399.518 L327,407.78 L326,395.178 L325,406.007 L324,396.581 L323,417.813 L322,404.299 L321,389.953 L320,404.299 L319,389.953 L318,409.623 L317,406.007 L316,392.493 L315,396.581 L314,409.623 L313,417.813 L312,398.026 L311,404.299 L310,404.299 L309,396.581 L308,399.518 L307,401.058 L306,409.623 L305,406.007 L304,409.623 L303,411.54 L302,402.651 L301,401.058 L300,398.026 L299,409.623 L298,395.178 L297,404.299 L296,396.581 L295,395.178 L294,402.651 L293,391.206 L292,415.628 L291,404.299 L290,404.299 L289,392.493 L288,411.54 L287,404.299 L286,399.518 L285,409.623 L284,402.651 L283,415.628 L282,415.628 L281,407.78 L280,404.299 L279,404.299 L278,413.54 L277,401.058 L276,422.515 L275,398.026 L274,404.299 L273,396.581 L272,388.733 L271,407.78 L270,409.623 L269,413.54 L268,395.178 L267,407.78 L266,406.007 L265,406.007 L264,413.54 L263,409.623 L262,420.105 L261,395.178 L260,413.54 L259,407.78 L258,389.953 L257,411.54 L256,392.493 L255,407.78 L254,404.299 L253,402.651 L252,402.651 L251,395.178 L250,409.623 L249,398.026 L248,399.518 L247,398.026 L246,392.493 L245,392.493 L244,402.651 L243,411.54 L242,392.493 L241,411.54 L240,407.78 L239,402.651 L238,399.518 L237,404.299 L236,409.623 L235,398.026 L234,420.105 L233,407.78 L232,395.178 L231,399.518 L230,398.026 L229,407.78 L228,398.026 L227,393.817 L226,404.299 L225,399.518 L224,413.54 L223,404.299 L222,398.026 L221,389.953 L220,409.623 L219,401.058 L218,406.007 L217,406.007 L216,396.581 L215,407.78 L214,406.007 L213,409.623 L212,402.651 L211,409.623 L210,409.623 L209,401.058 L208,413.54 L207,404.299 L206,411.54 L205,389.953 L204,409.623 L203,389.953 L202,393.817 L201,409.623 L200,402.651 L199,406.007 L198,406.007 L197,407.78 L196,399.518 L195,393.817 L194,413.54 L193,387.544 L192,413.54 L191,398.026 L190,409.623 L189,413.54 L188,388.733 L187,417.813 L186,406.007 L185,406.007 L184,401.058 L183,402.651 L182,404.299 L181,399.518 L180,415.628 L179,404.299 L178,417.813 L177,401.058 L176,401.058 L175,406.007 L174,406.007 L173,420.105 L172,404.299 L171,404.299 L170,413.54 L169,401.058 L168,402.651 L167,399.518 L166,413.54 L165,404.299 L164,407.78 L163,404.299 L162,409.623 L161,415.628 L160,402.651 L159,415.628 L158,395.178 L157,401.058 L156,411.54 L155,401.058 L154,395.178 L153,409.623 L152,409.623 L151,398.026 L150,407.78 L149,411.54 L148,409.623 L147,409.623 L146,399.518 L145,415.628 L144,393.817 L143,415.628 L142,391.206 L141,401.058 L140,399.518 L139,402.651 L138,415.628 L137,402.651 L136,420.105 L135,401.058 L134,401.058 L133,406.007 L132,398.026 L131,404.299 L130,392.493 L129,417.813 L128,417.813 L127,407.78 L126,398.026 L125,406.007 L124,402.651 L123,393.817 L122,406.007 L121,401.058 L120,395.178 L119,402.651 L118,406.007 L117,427.74 L116,399.518 L115,427.74 L114,389.953 L113,396.581 L112,396.581 L111,401.058 L110,407.78 L109,396.581 L108,409.623 L107,411.54 L106,407.78 L105,392.493 L104,396.581 L103,411.54 L102,402.651 L101,411.54 L100,401.058 L99,392.493 L98,385.252 L97,402.651 L96,413.54 L95,402.651 L94,411.54 L93,415.628 L92,396.581 L91,413.54 L90,393.817 L89,411.54 L88,404.299 L87,417.813 L86,407.78 L85,398.026 L84,398.026 L83,411.54 L82,420.105 L81,396.581 L80,430.588 Z" />
<path fill="#4285f4" stroke="#4285f4" stroke-width="2" d="M80,669 L81,468.099 L82,436.194 L83,435.537 L84,434.889 L85,434.889 L86,432.997 L87,441.07 L88,441.07 L89,433.934 L90,432.383 L91,430.295 L92,428.576 L93,432.383 L94,435.212 L95,431.179 L96,430.588 L97,429.428 L98,430.004 L99,422.763 L100,426.11 L101,425.055 L102,424.278 L103,427.19 L104,428.017 L105,423.262 L106,427.464 L107,434.889 L108,433.307 L109,429.428 L110,425.055 L111,425.316 L112,424.022 L113,428.296 L114,430.004 L115,432.689 L116,432.079 L117,433.934 L118,435.864 L119,435.212 L120,430.588 L121,428.858 L122,430.882 L123,430.588 L124,423.262 L125,429.715 L126,432.689 L127,432.079 L128,433.619 L129,436.526 L130,435.537 L131,425.055 L132,432.689 L133,431.477 L134,426.378 L135,426.918 L136,430.882 L137,432.383 L138,429.428 L139,428.017 L140,427.19 L141,426.918 L142,424.536 L143,428.296 L144,431.777 L145,427.74 L146,430.882 L147,430.882 L148,435.864 L149,434.569 L150,437.197 L151,431.179 L152,422.763 L153,431.179 L154,432.997 L155,425.58 L156,425.844 L157,432.997 L158,432.997 L159,430.588 L160,428.858 L161,427.19 L162,431.477 L163,431.179 L164,431.179 L165,435.537 L166,432.689 L167,426.11 L168,429.142 L169,428.858 L170,426.918 L171,433.934 L172,435.537 L173,436.194 L174,432.997 L175,432.997 L176,430.004 L177,432.689 L178,432.997 L179,430.004 L180,428.296 L181,426.647 L182,422.763 L183,432.689 L184,433.934 L185,425.58 L186,433.307 L187,432.997 L188,428.576 L189,429.428 L190,433.619 L191,432.997 L192,432.079 L193,431.477 L194,426.378 L195,430.588 L196,429.428 L197,430.004 L198,432.997 L199,436.194 L200,432.079 L201,427.464 L202,427.19 L203,429.142 L204,428.296 L205,427.74 L206,423.514 L207,427.464 L208,430.588 L209,432.997 L210,428.576 L211,432.383 L212,432.383 L213,431.777 L214,425.58 L215,430.004 L216,427.464 L217,421.536 L218,427.19 L219,427.19 L220,429.142 L221,430.588 L222,427.19 L223,424.022 L224,428.296 L225,429.715 L226,430.882 L227,428.296 L228,428.296 L229,432.997 L230,434.25 L231,428.017 L232,425.055 L233,430.588 L234,431.179 L235,430.882 L236,424.794 L237,427.74 L238,427.74 L239,424.278 L240,426.378 L241,431.777 L242,433.934 L243,427.19 L244,427.74 L245,424.022 L246,426.918 L247,424.794 L248,422.268 L249,420.815 L250,427.19 L251,425.844 L252,426.647 L253,430.295 L254,433.934 L255,430.588 L256,432.689 L257,427.74 L258,422.763 L259,425.844 L260,428.576 L261,429.715 L262,430.004 L263,431.777 L264,428.576 L265,427.19 L266,428.017 L267,426.647 L268,426.647 L269,428.576 L270,427.464 L271,428.017 L272,426.378 L273,423.262 L274,425.844 L275,431.477 L276,433.307 L277,433.307 L278,433.619 L279,432.383 L280,424.536 L281,424.794 L282,428.858 L283,436.86 L284,435.212 L285,426.11 L286,423.514 L287,423.514 L288,429.428 L289,428.017 L290,424.022 L291,431.477 L292,435.212 L293,434.569 L294,426.11 L295,424.278 L296,426.647 L297,426.918 L298,423.514 L299,422.515 L300,423.768 L301,424.536 L302,426.378 L303,425.844 L304,428.017 L305,431.777 L306,432.383 L307,431.179 L308,424.794 L309,423.514 L310,424.278 L311,430.004 L312,429.715 L313,426.647 L314,432.079 L315,431.777 L316,426.378 L317,430.882 L318,432.383 L319,430.882 L320,420.815 L321,421.536 L322,427.74 L323,430.004 L324,429.715 L325,427.19 L326,425.055 L327,423.768 L328,427.19 L329,427.464 L330,427.464 L331,429.142 L332,425.58 L333,426.11 L334,427.19 L335,428.017 L336,423.768 L337,428.576 L338,428.017 L339,418.263 L340,416.273 L341,419.406 L342,422.763 L343,425.316 L344,423.768 L345,423.262 L346,427.19 L347,427.19 L348,423.514 L349,421.054 L350,422.023 L351,429.142 L352,429.715 L353,424.536 L354,427.74 L355,428.296 L356,430.004 L357,427.74 L358,425.316 L359,430.004 L360,432.383 L361,430.882 L362,426.647 L363,433.307 L364,433.619 L365,426.378 L366,425.055 L367,424.794 L368,424.794 L369,419.871 L370,424.022 L371,425.316 L372,426.918 L373,430.295 L374,430.882 L375,433.619 L376,437.878 L377,435.537 L378,422.268 L379,427.74 L380,429.428 L381,424.022 L382,427.19 L383,428.296 L384,436.86 L385,439.27 L386,438.222 L387,434.25 L388,434.25 L389,431.777 L390,425.844 L391,427.74 L392,426.378 L393,425.844 L394,433.934 L395,437.197 L396,434.569 L397,433.619 L398,438.222 L399,431.477 L400,434.569 L401,438.222 L402,432.997 L403,430.004 L404,432.383 L405,431.477 L406,429.428 L407,431.477 L408,431.477 L409,428.017 L410,429.428 L411,429.142 L412,424.278 L413,422.023 L414,427.464 L415,433.934 L416,433.619 L417,427.464 L418,430.004 L419,430.004 L420,429.428 L421,429.142 L422,427.19 L423,427.464 L424,426.918 L425,423.514 L426,420.815 L427,423.514 L428,426.918 L429,423.012 L430,426.11 L431,434.25 L432,434.569 L433,430.004 L434,423.262 L435,429.715 L436,430.588 L437,430.295 L438,425.58 L439,424.794 L440,427.19 L441,429.428 L442,430.882 L443,432.997 L444,428.576 L445,430.295 L446,430.882 L447,426.918 L448,437.197 L449,436.194 L450,427.74 L451,426.378 L452,423.768 L453,423.514 L454,424.022 L455,426.918 L456,428.296 L457,424.278 L458,429.428 L459,432.383 L460,430.882 L461,428.017 L462,426.378 L463,426.378 L464,424.536 L465,424.022 L466,427.464 L467,426.378 L468,428.858 L469,430.588 L470,431.179 L471,425.844 L472,427.74 L473,436.526 L474,435.212 L475,425.316 L476,426.11 L477,430.588 L478,432.689 L479,430.004 L480,429.715 L481,433.934 L482,433.934 L483,436.86 L484,437.878 L485,433.307 L486,425.58 L487,431.777 L488,429.715 L489,431.777 L490,432.689 L491,427.464 L492,428.576 L493,430.882 L494,432.079 L495,427.19 L496,430.882 L497,430.882 L498,428.296 L499,421.779 L500,430.295 L501,430.882 L502,430.588 L503,432.689 L504,431.179 L505,429.142 L506,423.768 L507,422.268 L508,425.316 L509,425.844 L510,425.316 L511,427.464 L512,429.142 L513,429.428 L514,433.619 L515,433.619 L516,429.142 L517,428.858 L518,424.536 L519,423.262 L520,425.055 L521,428.296 L522,427.74 L523,426.647 L524,427.74 L525,428.576 L526,425.055 L527,425.844 L528,428.296 L529,428.296 L530,424.278 L531,423.514 L532,430.588 L533,430.882 L534,425.055 L535,423.514 L536,431.477 L537,428.576 L538,431.477 L539,432.689 L540,430.588 L541,424.794 L542,427.74 L543,426.918 L544,426.918 L545,429.715 L546,382.747 L547,207.437 L548,158.661 L549,133.338 L550,115.087 L551,98.3672 L552,76.9891 L553,57.279 L554,49.3794 L555,55.8535 L556,58.5704 L557,81.1104 L558,155.814 L559,218.216 L560,234.419 L561,247.915 L562,255.981 L563,264.967 L564,268.951 L565,275.469 L566,279.283 L567,283.473 L568,287.947 L569,290.659 L570,292.455 L571,295.831 L572,300.489 L573,301.475 L574,301.663 L575,304.885 L576,307.847 L577,310.323 L578,312.577 L579,314.373 L580,314.497 L581,316.888 L582,319.325 L583,320.269 L584,322.128 L585,324.4 L586,325.767 L587,325.578 L588,325.893 L589,327.11 L590,328.426 L591,330.125 L592,332.392 L593,332.175 L594,333.272 L595,335.274 L596,336.844 L597,336.171 L598,335.197 L599,335.74 L600,335.935 L601,337.165 L602,338.345 L603,338.842 L604,341.015 L605,342.477 L606,342.387 L607,343.94 L608,344.594 L609,345.067 L610,346.028 L611,345.689 L612,346.712 L613,346.712 L614,346.222 L615,349.241 L616,350.345 L617,353.594 L618,353.88 L619,351.204 L620,350.612 L621,352.859 L622,352.802 L623,352.301 L624,353.14 L625,357.023 L626,358.077 L627,360.325 L628,358.328 L629,355.991 L630,356.9 L631,355.812 L632,358.455 L633,359.932 L634,360.259 L635,361.457 L636,359.867 L637,361.39 L638,362.41 L639,362.068 L640,359.802 L641,362.41 L642,364.305 L643,367.643 L644,368.185 L645,370.251 L646,372.414 L647,371.654 L648,368.262 L649,367.49 L650,370.906 L651,371.403 L652,369.927 L653,370.333 L654,371.403 L655,370.66 L656,370.496 L657,369.526 L658,370.008 L659,369.847 L660,368.107 L661,370.824 L662,372.841 L663,371.487 L664,372.244 L665,372.499 L666,374.502 L667,378.203 L668,379.471 L669,378.784 L670,374.147 L671,376.131 L672,377.724 L673,377.629 L674,378.106 L675,378.979 L676,379.274 L677,381.803 L678,381.081 L679,375.039 L680,378.881 L681,378.784 L682,377.915 L683,380.068 L684,383.603 L685,383.603 L686,378.299 L687,378.589 L688,378.01 L689,384.256 L690,385.701 L691,384.696 L692,379.769 L693,380.978 L694,386.155 L695,388.135 L696,388.254 L697,385.029 L698,383.929 L699,382.96 L700,381.183 L701,384.037 L702,383.712 L703,386.96 L704,388.613 L705,386.384 L706,387.661 L707,387.897 L708,392.363 L709,393.549 L710,390.576 L711,389.217 L712,386.96 L713,389.83 L714,390.201 L715,389.096 L716,391.717 L717,391.845 L718,388.493 L719,391.461 L720,394.221 L721,393.416 L722,391.845 L723,392.363 L724,393.817 L725,393.283 L726,390.701 L727,390.077 L728,393.817 L729,397.443 L730,394.903 L731,395.734 L732,396.581 L733,395.734 L734,393.683 L735,391.333 L736,394.629 L737,395.04 L738,398.173 L739,399.366 L740,394.903 L741,396.581 L742,397.298 L743,395.595 L744,395.456 L745,395.595 L746,401.058 L747,401.058 L748,398.321 L749,397.154 L750,395.317 L751,399.065 L752,396.866 L753,396.581 L754,396.723 L755,394.357 L756,399.669 L757,400.746 L758,399.669 L759,396.581 L760,397.734 L761,396.439 L762,393.817 L763,391.845 L764,395.595 L765,401.53 L766,399.366 L767,397.734 L768,397.734 L769,397.588 L770,400.128 L771,402.328 L772,403.303 L773,406.357 L774,406.182 L775,404.299 L776,403.798 L777,407.063 L778,405.834 L779,402.813 L780,402.328 L781,401.53 L782,399.065 L783,399.822 L784,403.633 L785,407.78 L786,407.78 L787,406.532 L788,405.488 L789,404.467 L790,405.834 L791,407.6 L792,403.303 L793,408.509 L794,408.693 L795,407.6 L796,412.73 L797,413.133 L798,411.151 L799,408.143 L800,408.693 L801,408.693 L802,408.693 L803,408.326 L804,407.42 L805,407.78 L806,411.345 L807,411.934 L808,410.572 L809,404.805 L810,400.436 L811,402.167 L812,402.976 L813,402.007 L814,407.063 L815,410.957 L816,412.529 L817,407.42 L818,416.49 L819,417.147 L820,414.782 L821,407.78 L822,411.934 L823,413.95 L824,411.934 L825,406.532 L826,411.737 L827,415.203 L828,416.057 L829,410.381 L830,405.317 L831,410.572 L832,410.19 L833,410.381 L834,410.764 L835,411.54 L836,411.151 L837,411.737 L838,413.744 L839,418.038 L840,414.572 L841,418.945 L842,419.406 L843,414.992 L844,420.815 L845,420.577 L846,416.49 L847,406.886 L848,412.529 L849,411.345 L850,409.623 L851,413.744 L852,414.157 L853,414.364 L854,415.628 L855,414.157 L856,413.336 L857,416.708 L858,420.105 L859,418.717 L860,413.95 L861,412.931 L862,412.131 L863,416.057 L864,420.815 L865,420.577 L866,414.992 L867,410.764 L868,416.49 L869,416.927 L870,413.744 L871,416.708 L872,415.415 L873,416.057 L874,411.737 L875,415.203 L876,415.628 L877,417.368 L878,415.203 L879,412.73 L880,417.368 L881,418.945 L882,421.295 L883,419.406 L884,414.992 L885,418.038 L886,418.489 L887,418.489 L888,419.406 L889,413.133 L890,416.708 L891,416.49 L892,417.147 L893,425.055 L894,424.794 L895,418.945 L896,416.49 L897,416.273 L898,417.813 L899,418.489 L900,421.295 L901,419.406 L902,420.341 L903,426.647 L904,425.844 L905,420.105 L906,418.489 L907,418.263 L908,422.023 L909,426.11 L910,424.022 L911,418.263 L912,417.368 L913,416.927 L914,419.871 L915,421.536 L916,419.406 L917,415.628 L918,419.175 L919,421.295 L920,424.794 L921,426.378 L922,424.536 L923,420.341 L924,422.268 L925,418.263 L926,418.038 L927,415.628 L928,418.038 L929,417.147 L930,416.708 L931,417.59 L932,417.368 L933,419.175 L934,420.105 L935,418.263 L936,418.038 L937,416.927 L938,413.54 L939,412.131 L940,411.151 L941,415.203 L942,418.489 L943,416.49 L944,418.263 L945,420.815 L946,417.147 L947,418.945 L948,421.536 L949,422.023 L950,422.515 L951,420.577 L952,416.708 L953,418.263 L954,417.813 L955,416.927 L956,422.515 L957,422.023 L958,420.577 L959,419.175 L960,423.012 L961,424.278 L962,419.871 L963,423.262 L964,425.58 L965,418.945 L966,421.779 L967,420.105 L968,414.157 L969,416.49 L970,417.59 L971,419.406 L972,424.278 L973,428.858 L974,428.576 L975,421.295 L976,421.054 L977,421.779 L978,418.717 L979,422.023 L980,427.464 L981,423.514 L982,423.012 L983,422.268 L984,423.768 L985,421.536 L986,422.268 L987,421.779 L988,417.147 L989,418.945 L990,419.871 L991,421.536 L992,419.871 L993,417.368 L994,420.577 L995,420.105 L996,419.406 L997,421.295 L998,418.038 L999,415.628 L1000,421.295 L1001,422.268 L1002,421.536 L1003,426.11 L1004,425.58 L1005,423.768 L1006,418.489 L1007,420.341 L1008,421.054 L1009,422.268 L1010,418.263 L1011,420.341 L1012,421.295 L1013,423.768 L1014,422.763 L1015,424.794 L1016,422.515 L1017,418.038 L1018,420.105 L1019,417.813 L1020,416.49 L1021,422.023 L1022,426.918 L1023,422.268 L1024,413.95 L1025,413.744 L1026,419.175 L1027,427.464 L1028,427.74 L1029,425.055 L1030,417.813 L1031,412.33 L1032,415.203 L1033,421.536 L1034,425.316 L1035,424.278 L1036,430.295 L1037,430.882 L1038,422.268 L1039,417.813 L1040,420.815 L1041,421.295 L1042,421.054 L1043,423.012 L1044,420.341 L1045,420.577 L1046,424.536 L1047,422.023 L1048,415.415 L1049,425.316 L1050,425.844 L1051,427.74 L1052,428.576 L1053,426.647 L1054,430.882 L1055,426.11 L1056,423.012 L1057,418.489 L1058,417.147 L1059,416.273 L1060,418.717 L1061,419.871 L1062,419.406 L1063,419.638 L1064,422.515 L1065,428.576 L1066,424.278 L1067,427.464 L1068,430.004 L1069,426.918 L1070,420.341 L1071,424.278 L1072,423.514 L1073,423.012 L1074,423.514 L1075,424.278 L1076,422.515 L1077,421.054 L1078,420.815 L1079,421.779 L1080,420.341 L1081,422.268 L1082,422.515 L1083,423.012 L1084,418.038 L1085,420.577 L1086,430.882 L1087,436.194 L1088,437.197 L1089,432.079 L1090,428.576 L1091,427.74 L1092,426.918 L1093,425.055 L1094,425.844 L1095,422.763 L1096,423.514 L1097,421.536 L1098,423.768 L1099,419.638 L1100,419.406 L1101,420.577 L1102,422.515 L1103,421.779 L1104,420.341 L1105,426.378 L1106,426.647 L1107,428.576 L1108,426.11 L1109,427.19 L1110,427.19 L1111,422.763 L1112,423.262 L1113,424.278 L1114,422.515 L1115,425.316 L1116,429.428 L1117,427.74 L1118,420.577 L1119,425.316 L1120,427.19 L1121,428.017 L1122,423.768 L1123,423.262 L1124,423.514 L1125,426.918 L1126,431.179 L1127,430.882 L1128,428.858 L1129,426.378 L1130,422.023 L1131,427.74 L1132,430.004 L1133,433.307 L1134,431.477 L1135,431.477 L1136,430.588 L1137,430.004 L1138,427.74 L1139,427.74 L1140,429.428 L1141,436.194 L1142,437.197 L1143,425.055 L1144,432.997 L1145,432.997 L1146,430.004 L1147,435.212 L1148,430.588 L1149,429.715 L1150,426.11 L1151,429.142 L1152,430.882 L1153,434.889 L1154,434.569 L1155,433.619 L1156,436.86 L1157,437.197 L1158,428.858 L1159,429.142 L1160,429.428 L1161,429.428 L1162,428.576 L1163,430.588 L1164,427.19 L1165,425.844 L1166,429.428 L1167,429.715 L1168,432.997 L1169,432.079 L1170,429.428 L1171,426.647 L1172,430.295 L1173,431.477 L1174,424.278 L1175,426.918 L1176,433.619 L1177,432.997 L1178,430.588 L1179,427.464 L1180,426.918 L1181,430.588 L1182,431.777 L1183,426.378 L1184,433.934 L1185,430.882 L1186,428.858 L1187,431.477 L1188,427.464 L1189,424.794 L1190,423.768 L1191,428.296 L1192,430.004 L1193,429.142 L1194,427.74 L1195,424.536 L1196,431.777 L1197,437.536 L1198,439.625 L1199,434.889 L1200,429.715 L1201,430.882 L1202,432.997 L1203,438.569 L1204,437.197 L1205,430.588 L1206,430.295 L1207,435.212 L1208,430.004 L1209,425.844 L1210,427.74 L1211,430.588 L1212,432.689 L1213,433.934 L1214,432.689 L1215,431.477 L1216,431.777 L1217,433.307 L1218,433.934 L1219,432.689 L1220,429.142 L1221,428.296 L1222,428.576 L1223,430.295 L1224,429.715 L1225,429.428 L1226,426.918 L1227,427.19 L1228,426.647 L1229,424.278 L1230,421.536 L1231,422.515 L1232,422.515 L1233,427.464 L1234,428.858 L1235,426.647 L1236,423.514 L1237,427.19 L1238,428.858 L1239,433.619 L1240,432.997 L1241,429.142 L1242,428.017 L1243,430.588 L1244,433.307 L1245,434.25 L1246,430.295 L1247,432.997 L1248,432.383 L1249,423.768 L1250,426.647 L1251,428.858 L1252,422.023 L1253,426.918 L1254,425.055 L1255,428.296 L1256,430.295 L1257,428.576 L1258,423.514 L1259,428.576 L1260,430.004 L1261,430.004 L1262,425.055 L1263,421.536 L1264,426.647 L1265,428.858 L1266,432.383 L1267,432.689 L1268,430.588 L1269,426.918 L1270,426.918 L1271,423.768 L1272,422.515 L1273,423.768 L1274,424.536 L1275,424.022 L1276,424.278 L1277,426.11 L1278,432.997 L1278,424.536 L1277,422.023 L1276,418.717 L1275,419.406 L1274,421.779 L1273,420.577 L1272,418.945 L1271,418.263 L1270,422.023 L1269,420.341 L1268,420.577 L1267,426.647 L1266,426.11 L1265,423.768 L1264,419.871 L1263,418.489 L1262,418.489 L1261,423.514 L1260,426.378 L1259,422.515 L1258,420.341 L1257,421.054 L1256,426.378 L1255,422.023 L1254,421.295 L1253,419.175 L1252,418.263 L1251,419.175 L1250,419.871 L1249,418.263 L1248,422.023 L1247,427.464 L1246,425.316 L1245,428.858 L1244,426.918 L1243,425.055 L1242,424.022 L1241,425.055 L1240,425.844 L1239,425.844 L1238,422.763 L1237,423.012 L1236,418.038 L1235,418.489 L1234,423.012 L1233,421.536 L1232,418.489 L1231,418.038 L1230,418.945 L1229,420.341 L1228,422.763 L1227,422.268 L1226,421.295 L1225,423.514 L1224,424.278 L1223,423.262 L1222,423.514 L1221,423.768 L1220,424.536 L1219,428.017 L1218,429.715 L1217,428.576 L1216,426.378 L1215,427.464 L1214,429.715 L1213,429.142 L1212,426.918 L1211,425.844 L1210,423.514 L1209,420.815 L1208,421.054 L1207,430.004 L1206,419.638 L1205,419.871 L1204,430.295 L1203,431.477 L1202,428.296 L1201,426.378 L1200,426.11 L1199,426.11 L1198,432.997 L1197,430.295 L1196,423.012 L1195,421.536 L1194,421.295 L1193,422.268 L1192,425.844 L1191,421.295 L1190,420.105 L1189,421.779 L1188,423.012 L1187,422.763 L1186,425.316 L1185,426.11 L1184,425.58 L1183,421.779 L1182,422.023 L1181,424.536 L1180,422.268 L1179,423.262 L1178,424.278 L1177,428.296 L1176,425.58 L1175,417.59 L1174,416.273 L1173,423.262 L1172,426.378 L1171,421.536 L1170,421.779 L1169,426.918 L1168,426.647 L1167,424.536 L1166,424.022 L1165,423.012 L1164,422.023 L1163,426.918 L1162,424.536 L1161,424.022 L1160,421.536 L1159,421.536 L1158,422.763 L1157,425.844 L1156,433.619 L1155,427.464 L1154,429.428 L1153,428.858 L1152,427.464 L1151,425.58 L1150,422.268 L1149,425.844 L1148,426.647 L1147,427.74 L1146,426.647 L1145,425.316 L1144,425.055 L1143,421.779 L1142,424.536 L1141,428.296 L1140,424.278 L1139,423.768 L1138,423.514 L1137,425.58 L1136,427.19 L1135,427.74 L1134,427.19 L1133,427.74 L1132,426.378 L1131,420.341 L1130,415.842 L1129,418.263 L1128,425.58 L1127,425.844 L1126,426.647 L1125,422.515 L1124,419.175 L1123,419.638 L1122,421.054 L1121,422.268 L1120,424.536 L1119,419.638 L1118,416.273 L1117,419.638 L1116,425.58 L1115,420.815 L1114,419.406 L1113,420.815 L1112,416.273 L1111,416.708 L1110,419.406 L1109,420.815 L1108,420.577 L1107,422.268 L1106,421.536 L1105,419.871 L1104,417.813 L1103,416.273 L1102,416.273 L1101,416.927 L1100,416.49 L1099,416.708 L1098,417.59 L1097,417.368 L1096,419.175 L1095,419.871 L1094,420.577 L1093,418.489 L1092,419.638 L1091,422.515 L1090,425.58 L1089,426.647 L1088,427.74 L1087,429.428 L1086,420.341 L1085,413.95 L1084,413.744 L1083,416.927 L1082,420.341 L1081,417.368 L1080,416.708 L1079,417.59 L1078,417.813 L1077,418.038 L1076,418.489 L1075,418.489 L1074,418.717 L1073,417.147 L1072,419.175 L1071,418.945 L1070,416.708 L1069,418.717 L1068,425.844 L1067,418.263 L1066,419.175 L1065,422.023 L1064,416.927 L1063,416.927 L1062,416.49 L1061,416.49 L1060,413.95 L1059,412.529 L1058,412.529 L1057,414.992 L1056,416.057 L1055,421.295 L1054,423.768 L1053,424.022 L1052,424.794 L1051,422.515 L1050,422.023 L1049,413.95 L1048,412.33 L1047,414.992 L1046,420.577 L1045,416.057 L1044,415.628 L1043,418.263 L1042,416.708 L1041,417.147 L1040,414.157 L1039,412.529 L1038,415.203 L1037,418.717 L1036,421.295 L1035,420.105 L1034,421.536 L1033,413.133 L1032,408.877 L1031,408.509 L1030,409.249 L1029,416.927 L1028,422.515 L1027,418.945 L1026,412.73 L1025,411.345 L1024,409.623 L1023,412.529 L1022,421.054 L1021,413.95 L1020,411.737 L1019,413.54 L1018,415.203 L1017,413.54 L1016,414.364 L1015,420.105 L1014,417.59 L1013,418.489 L1012,415.842 L1011,414.992 L1010,413.133 L1009,415.203 L1008,417.368 L1007,414.157 L1006,414.782 L1005,418.038 L1004,422.515 L1003,421.295 L1002,417.59 L1001,418.038 L1000,413.95 L999,410.381 L998,410.957 L997,416.708 L996,412.931 L995,413.744 L994,414.572 L993,412.33 L992,416.057 L991,416.49 L990,416.49 L989,416.49 L988,414.572 L987,415.628 L986,418.263 L985,417.813 L984,418.717 L983,418.945 L982,418.489 L981,420.105 L980,420.105 L979,415.842 L978,414.992 L977,416.49 L976,417.813 L975,416.273 L974,418.945 L973,424.022 L972,416.273 L971,415.203 L970,414.364 L969,411.345 L968,411.737 L967,411.54 L966,417.59 L965,416.057 L964,417.59 L963,418.038 L962,417.368 L961,418.038 L960,416.49 L959,414.157 L958,415.628 L957,417.368 L956,416.057 L955,412.529 L954,412.529 L953,414.572 L952,412.33 L951,415.203 L950,417.813 L949,418.038 L948,416.927 L947,412.73 L946,413.133 L945,415.203 L944,414.364 L943,413.336 L942,413.744 L941,409.623 L940,407.063 L939,408.693 L938,409.435 L937,412.529 L936,413.133 L935,412.529 L934,416.708 L933,415.842 L932,414.157 L931,413.133 L930,408.143 L929,409.249 L928,414.157 L927,412.931 L926,413.336 L925,414.782 L924,416.49 L923,414.572 L922,419.871 L921,421.779 L920,420.341 L919,416.273 L918,415.203 L917,412.73 L916,413.133 L915,418.038 L914,413.95 L913,412.931 L912,413.54 L911,412.33 L910,417.368 L909,420.105 L908,416.057 L907,415.628 L906,413.133 L905,414.364 L904,420.341 L903,419.406 L902,415.415 L901,416.057 L900,414.157 L899,413.133 L898,412.931 L897,411.934 L896,412.529 L895,413.133 L894,418.038 L893,416.927 L892,410.957 L891,411.737 L890,410.957 L889,407.78 L888,411.54 L887,415.415 L886,415.415 L885,412.931 L884,411.737 L883,412.33 L882,415.415 L881,413.95 L880,411.934 L879,407.78 L878,410.957 L877,413.744 L876,410.957 L875,410.381 L874,409.249 L873,409.623 L872,411.934 L871,412.529 L870,410.19 L869,411.737 L868,409.249 L867,406.532 L866,409.062 L865,414.782 L864,416.057 L863,410.572 L862,408.693 L861,409.811 L860,410.19 L859,413.54 L858,415.415 L857,411.934 L856,410.19 L855,410.572 L854,413.133 L853,409.249 L852,410.19 L851,407.961 L850,404.805 L849,406.007 L848,406.886 L847,403.633 L846,406.357 L845,416.49 L844,414.157 L843,410 L842,413.336 L841,412.529 L840,412.131 L839,412.931 L838,410 L837,407.78 L836,407.78 L835,408.326 L834,408.509 L833,406.709 L832,406.182 L831,404.636 L830,401.689 L829,403.633 L828,408.877 L827,410.381 L826,404.299 L825,401.689 L824,406.007 L823,409.062 L822,405.661 L821,403.965 L820,405.146 L819,413.95 L818,406.182 L817,404.805 L816,406.007 L815,405.317 L814,399.366 L813,396.866 L812,396.581 L811,399.065 L810,397.298 L809,399.366 L808,404.636 L807,407.6 L806,405.488 L805,403.139 L804,403.139 L803,404.299 L802,405.661 L801,405.317 L800,403.965 L799,405.488 L798,406.007 L797,408.143 L796,406.357 L795,403.139 L794,405.661 L793,400.282 L792,399.518 L791,403.468 L790,398.469 L789,401.53 L788,400.902 L787,400.902 L786,404.467 L785,402.007 L784,398.026 L783,396.015 L782,397.154 L781,396.723 L780,398.766 L779,398.617 L778,402.007 L777,402.007 L776,401.372 L775,401.689 L774,402.007 L773,402.813 L772,399.216 L771,399.216 L770,395.456 L769,394.357 L768,394.221 L767,393.817 L766,396.156 L765,394.493 L764,390.326 L763,389.217 L762,389.462 L761,391.461 L760,393.283 L759,393.951 L758,394.629 L757,396.866 L756,393.15 L755,391.079 L754,392.363 L753,393.951 L752,394.766 L751,394.903 L750,393.018 L749,392.755 L748,395.04 L747,396.723 L746,394.493 L745,390.953 L744,392.363 L743,392.755 L742,391.333 L741,392.886 L740,392.363 L739,394.629 L738,393.416 L737,392.233 L736,390.953 L735,388.493 L734,388.016 L733,393.018 L732,393.416 L731,391.717 L730,389.83 L729,393.15 L728,386.96 L727,387.31 L726,386.96 L725,387.779 L724,392.103 L723,388.373 L722,388.613 L721,391.079 L720,391.206 L719,387.193 L718,385.814 L717,387.427 L716,388.254 L715,386.384 L714,387.31 L713,383.929 L712,384.696 L711,383.712 L710,387.544 L709,388.613 L708,387.661 L707,384.586 L706,383.929 L705,383.173 L704,382.853 L703,382.641 L702,380.876 L701,380.673 L700,378.396 L699,378.299 L698,380.572 L697,382.011 L696,384.586 L695,385.814 L694,380.471 L693,376.594 L692,375.764 L691,377.439 L690,383.067 L689,376.968 L688,375.129 L687,376.594 L686,376.131 L685,377.25 L684,379.57 L683,376.687 L682,375.4 L681,376.408 L680,374.324 L679,371.738 L678,375.039 L677,377.915 L676,377.25 L675,376.594 L674,375.4 L673,375.129 L672,374.68 L671,371.738 L670,371.99 L669,372.329 L668,377.439 L667,372.414 L666,371.32 L665,369.606 L664,368.575 L663,369.127 L662,369.127 L661,366.881 L660,364.592 L659,366.654 L658,364.52 L657,365.172 L656,367.72 L655,367.72 L654,368.107 L653,366.73 L652,366.056 L651,368.497 L650,365.833 L649,364.448 L648,365.759 L647,367.413 L646,369.446 L645,366.279 L644,364.809 L643,361.66 L642,360.457 L641,359.348 L640,357.145 L639,357.145 L638,360.391 L637,357.269 L636,357.64 L635,357.392 L634,357.702 L633,357.702 L632,355.336 L631,353.88 L630,355.041 L629,352.971 L628,353.594 L627,357.33 L626,355.514 L625,352.356 L624,350.292 L623,349.922 L622,350.292 L621,350.612 L620,346.418 L619,347.009 L618,351.042 L617,349.241 L616,347.758 L615,345.115 L614,344.172 L613,344.641 L612,343.754 L611,343.066 L610,343.754 L609,342.298 L608,342.612 L607,341.454 L606,340.495 L605,339.009 L604,338.262 L603,337.326 L602,336.289 L601,334.852 L600,334.433 L599,334.357 L598,332.574 L597,334.168 L596,334.813 L595,332.429 L594,330.892 L593,330.472 L592,329.814 L591,327.338 L590,327.078 L589,324.985 L588,323.55 L587,323.822 L586,323.912 L585,321.347 L584,319.545 L583,318.779 L582,316.163 L581,313.881 L580,313.442 L579,312.434 L578,310.119 L577,307.504 L576,304.785 L575,301.682 L574,300.287 L573,299.469 L572,295.798 L571,292.115 L570,290.495 L569,287.736 L568,283.154 L567,279.166 L566,275.329 L565,268.745 L564,264.7 L563,255.838 L562,247.915 L561,234.419 L560,218.21 L559,155.848 L558,81.1137 L557,58.5376 L556,55.7611 L555,49.373 L554,47.6342 L553,48.2196 L552,57.278 L551,76.9932 L550,98.37 L549,115.091 L548,133.341 L547,158.669 L546,207.457 L545,382.853 L544,424.022 L543,422.763 L542,420.577 L541,420.577 L540,421.295 L539,428.858 L538,425.844 L537,425.055 L536,423.768 L535,419.871 L534,417.147 L533,423.012 L532,422.268 L531,417.813 L530,417.813 L529,421.536 L528,424.794 L527,420.341 L526,420.341 L525,424.794 L524,424.278 L523,424.022 L522,424.022 L521,424.022 L520,420.341 L519,420.105 L518,420.577 L517,422.023 L516,425.055 L515,427.19 L514,428.576 L513,425.58 L512,425.316 L511,423.012 L510,421.295 L509,422.023 L508,421.295 L507,418.489 L506,415.842 L505,421.779 L504,427.464 L503,429.715 L502,426.647 L501,426.378 L500,421.779 L499,417.147 L498,420.577 L497,426.11 L496,424.794 L495,424.278 L494,423.514 L493,426.647 L492,421.295 L491,422.515 L490,425.58 L489,425.316 L488,425.055 L487,425.58 L486,421.536 L485,421.536 L484,432.079 L483,430.588 L482,428.296 L481,428.576 L480,424.536 L479,423.514 L478,426.378 L477,423.768 L476,422.268 L475,421.295 L474,422.515 L473,428.017 L472,417.813 L471,420.577 L470,425.844 L469,426.918 L468,424.794 L467,424.022 L466,420.577 L465,418.489 L464,418.263 L463,423.768 L462,424.022 L461,424.022 L460,426.11 L459,428.296 L458,423.262 L457,419.871 L456,424.536 L455,423.262 L454,419.406 L453,418.263 L452,419.638 L451,421.536 L450,420.815 L449,426.11 L448,424.536 L447,421.536 L446,425.055 L445,425.055 L444,425.58 L443,427.19 L442,425.58 L441,422.763 L440,421.295 L439,421.295 L438,420.815 L437,423.768 L436,426.378 L435,423.514 L434,418.945 L433,419.406 L432,429.142 L431,425.844 L430,417.368 L429,417.368 L428,419.871 L427,417.59 L426,416.927 L425,417.813 L424,422.515 L423,423.012 L422,421.779 L421,424.794 L420,425.844 L419,426.918 L418,421.536 L417,421.295 L416,427.74 L415,424.278 L414,421.295 L413,417.147 L412,417.147 L411,424.278 L410,426.11 L409,424.536 L408,425.316 L407,427.19 L406,425.055 L405,425.58 L404,428.017 L403,424.794 L402,426.918 L401,430.882 L400,427.19 L399,426.918 L398,429.428 L397,427.74 L396,425.844 L395,431.777 L394,425.844 L393,421.536 L392,422.268 L391,422.763 L390,423.012 L389,424.536 L388,430.588 L387,430.882 L386,428.576 L385,433.934 L384,423.514 L383,423.514 L382,422.023 L381,420.577 L380,423.262 L379,421.779 L378,419.175 L377,422.268 L376,432.383 L375,426.918 L374,427.19 L373,425.316 L372,421.779 L371,421.295 L370,415.842 L369,415.415 L368,418.945 L367,421.295 L366,421.536 L365,423.012 L364,424.536 L363,425.844 L362,420.341 L361,420.577 L360,429.428 L359,421.779 L358,420.341 L357,423.768 L356,423.768 L355,424.278 L354,421.536 L353,418.489 L352,422.268 L351,422.023 L350,418.038 L349,416.927 L348,418.717 L347,422.515 L346,422.268 L345,418.717 L344,420.105 L343,420.815 L342,416.708 L341,414.782 L340,410.19 L339,410 L338,418.038 L337,421.295 L336,419.871 L335,420.577 L334,422.763 L333,419.175 L332,420.105 L331,424.536 L330,420.341 L329,423.012 L328,421.054 L327,421.054 L326,421.295 L325,422.763 L324,425.055 L323,425.58 L322,420.577 L321,416.49 L320,416.273 L319,418.263 L318,426.11 L317,419.406 L316,421.054 L315,426.378 L314,425.316 L313,423.262 L312,424.022 L311,421.536 L310,418.263 L309,418.263 L308,419.406 L307,420.341 L306,428.858 L305,425.844 L304,422.268 L303,421.295 L302,420.341 L301,420.341 L300,419.175 L299,419.175 L298,419.638 L297,420.815 L296,422.023 L295,419.406 L294,419.871 L293,425.58 L292,430.004 L291,421.295 L290,420.341 L289,421.779 L288,423.012 L287,418.945 L286,418.945 L285,421.536 L284,425.055 L283,428.576 L282,423.514 L281,419.871 L280,418.489 L279,424.536 L278,429.142 L277,428.858 L276,428.858 L275,422.763 L274,422.515 L273,417.59 L272,417.813 L271,423.768 L270,421.779 L269,422.268 L268,421.536 L267,421.536 L266,423.514 L265,423.262 L264,423.768 L263,427.19 L262,425.316 L261,424.794 L260,423.768 L259,418.263 L258,416.708 L257,422.515 L256,425.844 L255,426.11 L254,428.576 L253,424.794 L252,421.054 L251,419.871 L250,418.717 L249,414.782 L248,416.273 L247,420.341 L246,419.871 L245,420.341 L244,421.295 L243,421.295 L242,423.262 L241,423.768 L240,420.815 L239,420.341 L238,421.295 L237,421.536 L236,420.815 L235,422.763 L234,428.296 L233,422.763 L232,418.945 L231,418.717 L230,425.316 L229,424.536 L228,420.815 L227,424.794 L226,427.464 L225,425.055 L224,422.515 L223,418.945 L222,418.263 L221,425.055 L220,424.278 L219,424.022 L218,421.054 L217,416.927 L216,417.147 L215,424.536 L214,422.515 L213,422.763 L212,428.296 L211,422.515 L210,423.514 L209,427.74 L208,424.536 L207,418.489 L206,418.945 L205,423.012 L204,424.022 L203,422.268 L202,423.012 L201,423.514 L200,425.58 L199,430.004 L198,428.858 L197,425.844 L196,425.58 L195,424.278 L194,422.515 L193,423.012 L192,428.858 L191,428.296 L190,426.647 L189,422.268 L188,422.023 L187,427.74 L186,424.536 L185,421.295 L184,424.794 L183,421.779 L182,418.717 L181,420.577 L180,425.316 L179,424.022 L178,427.19 L177,426.378 L176,425.844 L175,426.378 L174,429.715 L173,432.079 L172,429.428 L171,425.844 L170,419.871 L169,422.023 L168,425.844 L167,422.023 L166,423.514 L165,430.588 L164,426.647 L163,427.19 L162,426.11 L161,423.514 L160,423.514 L159,424.022 L158,425.58 L157,420.577 L156,418.263 L155,418.263 L154,423.012 L153,421.054 L152,419.175 L151,421.779 L150,430.588 L149,429.715 L148,428.296 L147,428.017 L146,425.58 L145,425.055 L144,426.918 L143,422.023 L142,420.105 L141,422.023 L140,423.514 L139,424.022 L138,425.055 L137,425.58 L136,425.316 L135,421.536 L134,421.054 L133,423.514 L132,423.262 L131,422.023 L130,422.763 L129,430.882 L128,426.11 L127,428.296 L126,427.464 L125,422.763 L124,418.489 L123,421.054 L122,428.017 L121,423.262 L120,423.262 L119,429.428 L118,431.179 L117,427.19 L116,426.378 L115,425.844 L114,422.515 L113,419.175 L112,419.638 L111,419.175 L110,422.023 L109,422.023 L108,426.647 L107,426.918 L106,418.038 L105,417.368 L104,423.012 L103,421.536 L102,420.105 L101,421.295 L100,418.263 L99,420.341 L98,420.577 L97,426.647 L96,423.768 L95,424.794 L94,429.715 L93,424.794 L92,425.316 L91,426.647 L90,426.11 L89,428.017 L88,433.934 L87,432.079 L86,429.428 L85,430.882 L84,430.004 L83,428.576 L82,430.295 L81,433.307 L80,468.756 Z" />
<path fill="#00000000" stroke="#000000" stroke-width="2" d="M80,0 L80,669 L1279,669" />
</svg>